<?xml version="1.0" standalone="no"?><!DOCTYPE svg PUBLIC "-//W3C//DTD SVG 1.1//EN" "http://www.w3.org/Graphics/SVG/1.1/DTD/svg11.dtd"><svg t="1517101328923" class="icon" style="" viewBox="0 0 1024 1024" version="1.1" xmlns="http://www.w3.org/2000/svg" p-id="5065" xmlns:xlink="http://www.w3.org/1999/xlink" width="128" height="128"><defs><style type="text/css"></style></defs><path d="M357.55008 743.81312 357.55008 123.46368l474.43968 0 5.00736 0c11.30496 0 20.48 9.17504 20.48 20.48l0 578.83648c0 11.30496-9.17504 20.48-20.48 20.48-0.12288 0-0.22528-0.03072-0.34816-0.03072-1.50528 0.3584-3.072 0.59392-4.68992 0.59392L357.55008 743.82336zM836.99712 900.5568c11.30496 0 20.48-9.17504 20.48-20.48l0-77.08672c0-11.30496-9.17504-20.48-20.48-20.48s-20.48 9.17504-20.48 20.48l0 56.60672L357.55008 859.5968l0 40.96L836.99712 900.5568zM302.62272 859.5968c-31.11936 0-56.5248-24.70912-57.77408-55.52128 0.03072-0.54272 0.13312-1.06496 0.12288-1.62816-0.02048-0.90112-0.0512-2.304-0.07168-4.16768 1.792-30.32064 26.96192-54.46656 57.72288-54.46656l13.96736 0L316.59008 123.46368l-13.93664 0c-54.50752 0-98.84672 44.34944-98.84672 98.84672 0 0.72704 0.14336 1.42336 0.21504 2.12992-0.07168 50.33984-0.69632 512.90112-0.07168 573.71648-0.04096 1.18784-0.18432 2.34496-0.18432 3.54304 0 52.40832 41.03168 95.30368 92.64128 98.53952 1.03424 0.16384 2.048 0.31744 3.1232 0.31744l17.05984 0 0-40.96L302.62272 859.5968z" p-id="5066" fill="#8a8a8a"></path></svg>