<?xml version="1.0" standalone="no"?><!DOCTYPE svg PUBLIC "-//W3C//DTD SVG 1.1//EN" "http://www.w3.org/Graphics/SVG/1.1/DTD/svg11.dtd"><svg t="1517066344452" class="icon" style="" viewBox="0 0 1024 1024" version="1.1" xmlns="http://www.w3.org/2000/svg" p-id="13216" xmlns:xlink="http://www.w3.org/1999/xlink" width="128" height="128"><defs><style type="text/css"></style></defs><path d="M652.8 76.8h-358.4c-56.32 0-102.4 46.08-102.4 102.4v614.4c0 56.32 46.08 102.4 102.4 102.4h460.8c56.32 0 102.4-46.08 102.4-102.4V281.6l-204.8-204.8z m153.6 716.8c0 28.16-23.04 51.2-51.2 51.2h-460.8c-28.16 0-51.2-23.04-51.2-51.2V179.2c0-28.16 23.04-51.2 51.2-51.2h307.2v102.4c0 56.32 46.08 102.4 102.4 102.4h102.4v460.8z m-102.4-512c-28.16 0-51.2-23.04-51.2-51.2V128l153.6 153.6h-102.4z" p-id="13217" fill="#1afa29"></path></svg>