<?xml version="1.0" standalone="no"?><!DOCTYPE svg PUBLIC "-//W3C//DTD SVG 1.1//EN" "http://www.w3.org/Graphics/SVG/1.1/DTD/svg11.dtd"><svg t="1517321705430" class="icon" style="" viewBox="0 0 1024 1024" version="1.1" xmlns="http://www.w3.org/2000/svg" p-id="14303" xmlns:xlink="http://www.w3.org/1999/xlink" width="48" height="48"><defs><style type="text/css"></style></defs><path d="M912.290909 158.254545v-148.945454H0v875.054545h130.327273v130.327273h893.672727v-856.436364h-111.709091z m-875.054545 688.872728v-800.581818h837.818181v111.70909H130.327273v688.872728H37.236364z m949.527272 130.327272H167.563636v-781.963636h819.2v781.963636z" fill="" p-id="14304"></path><path d="M735.138909 428.497455a18.599564 18.599564 0 0 0-26.326109 0L577.163636 560.146618l-131.649163-131.649163a18.599564 18.599564 0 1 0-26.326109 26.326109l131.649163 131.649163-131.649163 131.649164a18.599564 18.599564 0 1 0 26.326109 26.326109L577.163636 612.798836l131.649164 131.649164a18.562327 18.562327 0 0 0 26.326109 0 18.599564 18.599564 0 0 0 0-26.326109L603.489745 586.472727l131.649164-131.649163a18.599564 18.599564 0 0 0 0-26.326109z" fill="" p-id="14305"></path></svg>