<?xml version="1.0" standalone="no"?><!DOCTYPE svg PUBLIC "-//W3C//DTD SVG 1.1//EN" "http://www.w3.org/Graphics/SVG/1.1/DTD/svg11.dtd"><svg t="1517320827360" class="icon" style="" viewBox="0 0 1024 1024" version="1.1" xmlns="http://www.w3.org/2000/svg" p-id="3944" xmlns:xlink="http://www.w3.org/1999/xlink" width="128" height="128"><defs><style type="text/css"></style></defs><path d="M927.244864 1012.3251H97.006869c-46.806026 0-84.886319-38.07927-84.886319-84.884273V97.202832c0-46.806026 38.07927-84.886319 84.886319-84.886319h573.258179c39.84959 0 91.179652 21.278629 119.397321 49.497321l172.97047 172.97047c28.218692 28.220738 49.498344 79.550801 49.498344 119.398344v573.258179c0 46.805002-38.080294 84.884272-84.886319 84.884273z m-73.255421-51.16531h73.255421c18.594497 0 33.721009-15.126512 33.721009-33.718963V354.181625c0-25.944905-16.128329-64.832588-34.513048-83.219353L753.482355 97.992825c-12.94073-12.94073-36.040844-24.762987-57.634652-30.629601v285.096177c0 46.806026-38.07927 84.886319-84.884272 84.886319H255.147586c-46.805002 0-84.884272-38.07927-84.884273-84.886319V63.481823h-73.256444c-18.593474 0-33.721009 15.127536-33.721009 33.721009v830.237995c0 18.59245 15.126512 33.718963 33.721009 33.718963h73.256444V650.695852c0-46.806026 38.07927-84.886319 84.884273-84.886319h513.957585c46.805002 0 84.884272 38.080294 84.884272 84.886319v310.463938z m-632.56082 0h581.39551V650.695852c0-18.593474-15.126512-33.721009-33.718962-33.721009H255.147586c-18.59245 0-33.718963 15.127536-33.718963 33.721009v310.463938z m237.20954-574.980404h152.324244c18.59245 0 33.718963-15.127536 33.718963-33.721009V63.481823H458.638163v322.697563zM221.428623 63.481823v288.977578c0 18.593474 15.126512 33.721009 33.718963 33.721009h152.325267V63.481823H221.428623z" p-id="3945" fill="#707070"></path></svg>